<svg width="24" height="24" viewBox="0 0 24 24" fill="none" xmlns="http://www.w3.org/2000/svg">
<circle cx="4" cy="3.5" r="1.5" stroke="#270147"/>
<circle cx="21" cy="20.5" r="1.5" stroke="#270147"/>
<circle cx="4" cy="20.5" r="1.5" stroke="#270147"/>
<circle cx="21" cy="3.5" r="1.5" stroke="#270147"/>
<path d="M3 4.5L3 12L3 19.5" stroke="#270147"/>
<path d="M20 2.5L5 2.5" stroke="#270147"/>
<path d="M20 21.5L5 21.5" stroke="#270147"/>
<path d="M22 4.5V19.5" stroke="#270147"/>
<path d="M7 6.5H6.5V7.5H7V6.5ZM17 7.5H17.5V6.5H17V7.5ZM11.5 17V17.5H12.5V17H11.5ZM7 7.5H12V6.5H7V7.5ZM12 7.5H17V6.5H12V7.5ZM11.5 7V17H12.5V7H11.5Z" fill="url(#paint0_linear_41_192)"/>
<defs>
<linearGradient id="paint0_linear_41_192" x1="9.5" y1="5.33333" x2="12.8333" y2="18.6667" gradientUnits="userSpaceOnUse">
<stop stop-color="#270147"/>
<stop offset="1" stop-color="#270147" stop-opacity="0"/>
</linearGradient>
</defs>
</svg>
