<svg width="32" height="14" viewBox="0 0 32 14" fill="none" xmlns="http://www.w3.org/2000/svg">
<path d="M31.5 7C31.5 7.80107 31.131 8.60363 30.3832 9.37718C29.633 10.1531 28.5233 10.8748 27.1133 11.4917C24.2948 12.7248 20.366 13.5 16 13.5C11.634 13.5 7.70525 12.7248 4.8867 11.4917C3.47669 10.8748 2.36702 10.1531 1.61683 9.37718C0.868978 8.60363 0.5 7.80107 0.5 7C0.5 6.19893 0.868978 5.39637 1.61683 4.62282C2.36702 3.84685 3.47669 3.12521 4.8867 2.50833C7.70525 1.27522 11.634 0.5 16 0.5C20.366 0.5 24.2948 1.27522 27.1133 2.50833C28.5233 3.12521 29.633 3.84685 30.3832 4.62282C31.131 5.39637 31.5 6.19893 31.5 7Z" stroke="url(#paint0_linear_38_127)"/>
<defs>
<linearGradient id="paint0_linear_38_127" x1="-2.38419e-07" y1="7" x2="34.2857" y2="7" gradientUnits="userSpaceOnUse">
<stop stop-color="#350147"/>
<stop offset="1" stop-color="#ED6AB1" stop-opacity="0"/>
</linearGradient>
</defs>
</svg>
