<svg width="24" height="24" viewBox="0 0 24 24" fill="none" xmlns="http://www.w3.org/2000/svg">
<circle cx="4" cy="3.5" r="1.5" stroke="#270147"/>
<circle cx="21" cy="20.5" r="1.5" stroke="#270147"/>
<circle cx="4" cy="20.5" r="1.5" stroke="#270147"/>
<circle cx="21" cy="3.5" r="1.5" stroke="#270147"/>
<path d="M3 4.5L3 12L3 19.5" stroke="#270147"/>
<path d="M20 2.5L5 2.5" stroke="#270147"/>
<path d="M20 21.5L5 21.5" stroke="#270147"/>
<path d="M22 4.5V19.5" stroke="#270147"/>
<path d="M8 6.5H7.5V7.5H8V6.5ZM18 7.5H18.5V6.5H18V7.5ZM10.0149 16.8787L9.89366 17.3638L10.8638 17.6063L10.9851 17.1213L10.0149 16.8787ZM8 7.5H13V6.5H8V7.5ZM13 7.5H18V6.5H13V7.5ZM12.5149 6.87873L10.0149 16.8787L10.9851 17.1213L13.4851 7.12127L12.5149 6.87873Z" fill="#270147"/>
</svg>
