<svg width="157" height="46" viewBox="0 0 157 46" fill="none" xmlns="http://www.w3.org/2000/svg">
<g clip-path="url(#clip0_14_24)">
<g clip-path="url(#clip1_14_24)">
<circle cx="23" cy="23" r="22" fill="white" stroke="#971AFF" stroke-width="2"/>
<circle cx="23" cy="23" r="9" fill="#530096"/>
<path d="M22.461 25.0758C14.2491 25.6663 2 31.1994 2 31.1994C2 31.1994 7.13684 45.6081 24.0811 44.98C41.0253 44.352 45 27.8658 45 27.8658C45 27.8658 31.1098 24.4538 22.461 25.0758Z" fill="#332C2C" stroke="#332C2C"/>
</g>
<path d="M55.642 18.0909V29H54.321V18.0909H55.642ZM59.3774 24.0781V29H58.1203V20.8182H59.3348V22.0966H59.4413C59.6331 21.6811 59.9243 21.3473 60.3149 21.0952C60.7055 20.8395 61.2098 20.7116 61.8277 20.7116C62.3817 20.7116 62.8664 20.8253 63.2819 21.0526C63.6974 21.2763 64.0205 21.6172 64.2513 22.0753C64.4822 22.5298 64.5976 23.1051 64.5976 23.8011V29H63.3405V23.8864C63.3405 23.2436 63.1736 22.7429 62.8398 22.3842C62.5059 22.022 62.0479 21.8409 61.4655 21.8409C61.0642 21.8409 60.7055 21.9279 60.3895 22.1019C60.077 22.2759 59.8302 22.5298 59.6491 22.8636C59.468 23.1974 59.3774 23.6023 59.3774 24.0781ZM72.6902 22.6506L71.5609 22.9702C71.4899 22.782 71.3851 22.5991 71.2466 22.4215C71.1117 22.2404 70.927 22.0913 70.6926 21.9741C70.4583 21.8569 70.1582 21.7983 69.7924 21.7983C69.2917 21.7983 68.8745 21.9137 68.5407 22.1445C68.2104 22.3718 68.0453 22.6612 68.0453 23.0128C68.0453 23.3253 68.1589 23.5721 68.3862 23.7532C68.6135 23.9343 68.9686 24.0852 69.4515 24.206L70.666 24.5043C71.3975 24.6818 71.9426 24.9535 72.3013 25.3192C72.66 25.6815 72.8393 26.1484 72.8393 26.7202C72.8393 27.1889 72.7044 27.608 72.4345 27.9773C72.1681 28.3466 71.7953 28.6378 71.3159 28.8509C70.8365 29.0639 70.2789 29.1705 69.6433 29.1705C68.8088 29.1705 68.1181 28.9893 67.5712 28.6271C67.0243 28.2649 66.6781 27.7358 66.5325 27.0398L67.7257 26.7415C67.8393 27.1818 68.0542 27.5121 68.3702 27.7322C68.6898 27.9524 69.1071 28.0625 69.622 28.0625C70.2079 28.0625 70.6731 27.9382 71.0176 27.6896C71.3656 27.4375 71.5396 27.1357 71.5396 26.7841C71.5396 26.5 71.4402 26.2621 71.2413 26.0703C71.0424 25.875 70.737 25.7294 70.3251 25.6335L68.9615 25.3139C68.2122 25.1364 67.6618 24.8612 67.3102 24.4883C66.9622 24.1119 66.7882 23.6413 66.7882 23.0767C66.7882 22.6151 66.9178 22.2067 67.177 21.8516C67.4398 21.4964 67.7967 21.2177 68.2477 21.0153C68.7022 20.8129 69.2172 20.7116 69.7924 20.7116C70.6021 20.7116 71.2377 20.8892 71.6994 21.2443C72.1646 21.5994 72.4949 22.0682 72.6902 22.6506ZM74.7316 32.0682V20.8182H75.9461V22.1179H76.0953C76.1876 21.9759 76.3154 21.7947 76.4788 21.5746C76.6457 21.3509 76.8836 21.152 77.1926 20.978C77.5051 20.8004 77.9276 20.7116 78.4603 20.7116C79.1492 20.7116 79.7565 20.8839 80.282 21.2283C80.8076 21.5728 81.2178 22.0611 81.5125 22.6932C81.8073 23.3253 81.9546 24.071 81.9546 24.9304C81.9546 25.7969 81.8073 26.5479 81.5125 27.1836C81.2178 27.8157 80.8094 28.3058 80.2874 28.6538C79.7654 28.9982 79.1634 29.1705 78.4816 29.1705C77.9561 29.1705 77.5352 29.0835 77.2192 28.9094C76.9031 28.7319 76.6599 28.5312 76.4894 28.3075C76.319 28.0803 76.1876 27.892 76.0953 27.7429H75.9887V32.0682H74.7316ZM75.9674 24.9091C75.9674 25.527 76.058 26.0721 76.2391 26.5444C76.4202 27.0131 76.6847 27.3807 77.0328 27.647C77.3808 27.9098 77.8069 28.0412 78.3112 28.0412C78.8367 28.0412 79.2753 27.9027 79.6269 27.6257C79.982 27.3452 80.2483 26.9687 80.4259 26.4964C80.607 26.0206 80.6975 25.4915 80.6975 24.9091C80.6975 24.3338 80.6088 23.8153 80.4312 23.3537C80.2572 22.8885 79.9926 22.521 79.6375 22.2511C79.286 21.9776 78.8438 21.8409 78.3112 21.8409C77.7998 21.8409 77.3701 21.9705 77.0221 22.2298C76.6741 22.4854 76.4113 22.8441 76.2338 23.3058C76.0562 23.7638 75.9674 24.2983 75.9674 24.9091ZM83.8722 29V20.8182H85.1294V29H83.8722ZM84.5115 19.4545C84.2664 19.4545 84.0551 19.3711 83.8776 19.2042C83.7036 19.0373 83.6166 18.8366 83.6166 18.6023C83.6166 18.3679 83.7036 18.1673 83.8776 18.0004C84.0551 17.8335 84.2664 17.75 84.5115 17.75C84.7565 17.75 84.966 17.8335 85.14 18.0004C85.3176 18.1673 85.4063 18.3679 85.4063 18.6023C85.4063 18.8366 85.3176 19.0373 85.14 19.2042C84.966 19.3711 84.7565 19.4545 84.5115 19.4545ZM87.4318 29V20.8182H88.6463V22.054H88.7315C88.8807 21.6491 89.1506 21.3207 89.5412 21.0685C89.9318 20.8164 90.3722 20.6903 90.8622 20.6903C90.9545 20.6903 91.07 20.6921 91.2085 20.6957C91.3469 20.6992 91.4517 20.7045 91.5227 20.7116V21.9901C91.4801 21.9794 91.3825 21.9634 91.2298 21.9421C91.0806 21.9173 90.9226 21.9048 90.7557 21.9048C90.358 21.9048 90.0028 21.9883 89.6903 22.1552C89.3814 22.3185 89.1364 22.5458 88.9553 22.837C88.7777 23.1246 88.6889 23.4531 88.6889 23.8224V29H87.4318ZM96.1942 29.1705C95.4059 29.1705 94.7259 28.9964 94.1541 28.6484C93.5859 28.2969 93.1474 27.8068 92.8384 27.1783C92.533 26.5462 92.3803 25.8111 92.3803 24.973C92.3803 24.1349 92.533 23.3963 92.8384 22.7571C93.1474 22.1143 93.5771 21.6136 94.1275 21.255C94.6815 20.8928 95.3278 20.7116 96.0664 20.7116C96.4925 20.7116 96.9134 20.7827 97.3288 20.9247C97.7443 21.0668 98.1225 21.2976 98.4634 21.6172C98.8043 21.9332 99.076 22.3523 99.2784 22.8743C99.4808 23.3963 99.582 24.0391 99.582 24.8026V25.3352H93.2752V24.2486H98.3036C98.3036 23.7869 98.2113 23.375 98.0266 23.0128C97.8455 22.6506 97.5863 22.3647 97.2489 22.1552C96.9151 21.9457 96.521 21.8409 96.0664 21.8409C95.5657 21.8409 95.1325 21.9652 94.7667 22.2138C94.4045 22.4588 94.1257 22.7784 93.9304 23.1726C93.7351 23.5668 93.6374 23.9893 93.6374 24.4403V25.1648C93.6374 25.7827 93.744 26.3065 93.957 26.7362C94.1737 27.1623 94.4737 27.4872 94.8572 27.7109C95.2408 27.9311 95.6864 28.0412 96.1942 28.0412C96.5245 28.0412 96.8228 27.995 97.0891 27.9027C97.359 27.8068 97.5916 27.6648 97.7869 27.4766C97.9822 27.2848 98.1332 27.0469 98.2397 26.7628L99.4542 27.1037C99.3263 27.5156 99.1115 27.8778 98.8097 28.1903C98.5078 28.4993 98.1349 28.7408 97.6911 28.9148C97.2472 29.0852 96.7482 29.1705 96.1942 29.1705ZM104.584 29.1705C103.902 29.1705 103.3 28.9982 102.778 28.6538C102.256 28.3058 101.848 27.8157 101.553 27.1836C101.258 26.5479 101.111 25.7969 101.111 24.9304C101.111 24.071 101.258 23.3253 101.553 22.6932C101.848 22.0611 102.258 21.5728 102.783 21.2283C103.309 20.8839 103.916 20.7116 104.605 20.7116C105.138 20.7116 105.559 20.8004 105.868 20.978C106.18 21.152 106.418 21.3509 106.581 21.5746C106.748 21.7947 106.878 21.9759 106.97 22.1179H107.077V18.0909H108.334V29H107.119V27.7429H106.97C106.878 27.892 106.746 28.0803 106.576 28.3075C106.406 28.5312 106.162 28.7319 105.846 28.9094C105.53 29.0835 105.109 29.1705 104.584 29.1705ZM104.754 28.0412C105.259 28.0412 105.685 27.9098 106.033 27.647C106.381 27.3807 106.645 27.0131 106.826 26.5444C107.007 26.0721 107.098 25.527 107.098 24.9091C107.098 24.2983 107.009 23.7638 106.832 23.3058C106.654 22.8441 106.391 22.4854 106.043 22.2298C105.695 21.9705 105.266 21.8409 104.754 21.8409C104.222 21.8409 103.778 21.9776 103.423 22.2511C103.071 22.521 102.806 22.8885 102.629 23.3537C102.455 23.8153 102.368 24.3338 102.368 24.9091C102.368 25.4915 102.457 26.0206 102.634 26.4964C102.815 26.9687 103.082 27.3452 103.433 27.6257C103.788 27.9027 104.229 28.0412 104.754 28.0412ZM121.166 20.8182C121.102 20.2784 120.843 19.8594 120.388 19.5611C119.934 19.2628 119.376 19.1136 118.716 19.1136C118.233 19.1136 117.81 19.1918 117.448 19.348C117.089 19.5043 116.809 19.7191 116.606 19.9925C116.407 20.266 116.308 20.5767 116.308 20.9247C116.308 21.2159 116.377 21.4663 116.516 21.6758C116.658 21.8817 116.839 22.054 117.059 22.1925C117.279 22.3274 117.51 22.4393 117.751 22.5281C117.993 22.6133 118.215 22.6825 118.417 22.7358L119.525 23.0341C119.809 23.1087 120.125 23.2116 120.473 23.343C120.825 23.4744 121.161 23.6538 121.48 23.881C121.803 24.1048 122.07 24.3924 122.279 24.744C122.489 25.0955 122.593 25.527 122.593 26.0384C122.593 26.6278 122.439 27.1605 122.13 27.6364C121.825 28.1122 121.377 28.4904 120.788 28.771C120.202 29.0515 119.49 29.1918 118.652 29.1918C117.87 29.1918 117.194 29.0657 116.622 28.8136C116.054 28.5614 115.607 28.2099 115.28 27.7589C114.957 27.3079 114.774 26.7841 114.731 26.1875H116.095C116.13 26.5994 116.269 26.9403 116.51 27.2102C116.755 27.4766 117.064 27.6754 117.437 27.8068C117.814 27.9347 118.218 27.9986 118.652 27.9986C119.156 27.9986 119.609 27.9169 120.01 27.7536C120.411 27.5866 120.729 27.3558 120.963 27.0611C121.198 26.7628 121.315 26.4148 121.315 26.017C121.315 25.6548 121.214 25.3601 121.011 25.1328C120.809 24.9055 120.543 24.7209 120.212 24.5788C119.882 24.4368 119.525 24.3125 119.142 24.206L117.799 23.8224C116.947 23.5774 116.272 23.2276 115.775 22.7731C115.278 22.3185 115.029 21.7237 115.029 20.9886C115.029 20.3778 115.195 19.8452 115.525 19.3906C115.859 18.9325 116.306 18.5774 116.867 18.3253C117.432 18.0696 118.062 17.9418 118.758 17.9418C119.461 17.9418 120.086 18.0678 120.633 18.32C121.18 18.5685 121.613 18.9094 121.933 19.3427C122.256 19.7759 122.426 20.2678 122.444 20.8182H121.166ZM125.852 18.0909V29H124.595V18.0909H125.852ZM128.154 29V20.8182H129.412V29H128.154ZM128.794 19.4545C128.549 19.4545 128.337 19.3711 128.16 19.2042C127.986 19.0373 127.899 18.8366 127.899 18.6023C127.899 18.3679 127.986 18.1673 128.16 18.0004C128.337 17.8335 128.549 17.75 128.794 17.75C129.039 17.75 129.248 17.8335 129.422 18.0004C129.6 18.1673 129.689 18.3679 129.689 18.6023C129.689 18.8366 129.6 19.0373 129.422 19.2042C129.248 19.3711 129.039 19.4545 128.794 19.4545ZM134.804 29.1705C134.122 29.1705 133.52 28.9982 132.998 28.6538C132.476 28.3058 132.067 27.8157 131.773 27.1836C131.478 26.5479 131.331 25.7969 131.331 24.9304C131.331 24.071 131.478 23.3253 131.773 22.6932C132.067 22.0611 132.478 21.5728 133.003 21.2283C133.529 20.8839 134.136 20.7116 134.825 20.7116C135.358 20.7116 135.778 20.8004 136.087 20.978C136.4 21.152 136.638 21.3509 136.801 21.5746C136.968 21.7947 137.098 21.9759 137.19 22.1179H137.296V18.0909H138.554V29H137.339V27.7429H137.19C137.098 27.892 136.966 28.0803 136.796 28.3075C136.625 28.5312 136.382 28.7319 136.066 28.9094C135.75 29.0835 135.329 29.1705 134.804 29.1705ZM134.974 28.0412C135.478 28.0412 135.904 27.9098 136.252 27.647C136.6 27.3807 136.865 27.0131 137.046 26.5444C137.227 26.0721 137.318 25.527 137.318 24.9091C137.318 24.2983 137.229 23.7638 137.051 23.3058C136.874 22.8441 136.611 22.4854 136.263 22.2298C135.915 21.9705 135.485 21.8409 134.974 21.8409C134.441 21.8409 133.997 21.9776 133.642 22.2511C133.291 22.521 133.026 22.8885 132.849 23.3537C132.675 23.8153 132.588 24.3338 132.588 24.9091C132.588 25.4915 132.676 26.0206 132.854 26.4964C133.035 26.9687 133.301 27.3452 133.653 27.6257C134.008 27.9027 134.448 28.0412 134.974 28.0412ZM144.461 29.1705C143.672 29.1705 142.992 28.9964 142.421 28.6484C141.853 28.2969 141.414 27.8068 141.105 27.1783C140.8 26.5462 140.647 25.8111 140.647 24.973C140.647 24.1349 140.8 23.3963 141.105 22.7571C141.414 22.1143 141.844 21.6136 142.394 21.255C142.948 20.8928 143.594 20.7116 144.333 20.7116C144.759 20.7116 145.18 20.7827 145.595 20.9247C146.011 21.0668 146.389 21.2976 146.73 21.6172C147.071 21.9332 147.343 22.3523 147.545 22.8743C147.747 23.3963 147.849 24.0391 147.849 24.8026V25.3352H141.542V24.2486H146.57C146.57 23.7869 146.478 23.375 146.293 23.0128C146.112 22.6506 145.853 22.3647 145.516 22.1552C145.182 21.9457 144.788 21.8409 144.333 21.8409C143.832 21.8409 143.399 21.9652 143.033 22.2138C142.671 22.4588 142.392 22.7784 142.197 23.1726C142.002 23.5668 141.904 23.9893 141.904 24.4403V25.1648C141.904 25.7827 142.011 26.3065 142.224 26.7362C142.44 27.1623 142.74 27.4872 143.124 27.7109C143.507 27.9311 143.953 28.0412 144.461 28.0412C144.791 28.0412 145.089 27.995 145.356 27.9027C145.626 27.8068 145.858 27.6648 146.054 27.4766C146.249 27.2848 146.4 27.0469 146.506 26.7628L147.721 27.1037C147.593 27.5156 147.378 27.8778 147.076 28.1903C146.774 28.4993 146.402 28.7408 145.958 28.9148C145.514 29.0852 145.015 29.1705 144.461 29.1705ZM155.556 22.6506L154.427 22.9702C154.356 22.782 154.251 22.5991 154.113 22.4215C153.978 22.2404 153.793 22.0913 153.559 21.9741C153.324 21.8569 153.024 21.7983 152.659 21.7983C152.158 21.7983 151.741 21.9137 151.407 22.1445C151.077 22.3718 150.911 22.6612 150.911 23.0128C150.911 23.3253 151.025 23.5721 151.252 23.7532C151.48 23.9343 151.835 24.0852 152.318 24.206L153.532 24.5043C154.264 24.6818 154.809 24.9535 155.168 25.3192C155.526 25.6815 155.706 26.1484 155.706 26.7202C155.706 27.1889 155.571 27.608 155.301 27.9773C155.034 28.3466 154.661 28.6378 154.182 28.8509C153.703 29.0639 153.145 29.1705 152.509 29.1705C151.675 29.1705 150.984 28.9893 150.437 28.6271C149.891 28.2649 149.544 27.7358 149.399 27.0398L150.592 26.7415C150.706 27.1818 150.92 27.5121 151.236 27.7322C151.556 27.9524 151.973 28.0625 152.488 28.0625C153.074 28.0625 153.539 27.9382 153.884 27.6896C154.232 27.4375 154.406 27.1357 154.406 26.7841C154.406 26.5 154.306 26.2621 154.108 26.0703C153.909 25.875 153.603 25.7294 153.191 25.6335L151.828 25.3139C151.078 25.1364 150.528 24.8612 150.176 24.4883C149.828 24.1119 149.654 23.6413 149.654 23.0767C149.654 22.6151 149.784 22.2067 150.043 21.8516C150.306 21.4964 150.663 21.2177 151.114 21.0153C151.568 20.8129 152.083 20.7116 152.659 20.7116C153.468 20.7116 154.104 20.8892 154.566 21.2443C155.031 21.5994 155.361 22.0682 155.556 22.6506Z" fill="#270147"/>
</g>
<defs>
<clipPath id="clip0_14_24">
<rect width="157" height="46" fill="white"/>
</clipPath>
<clipPath id="clip1_14_24">
<rect width="46" height="46" fill="white"/>
</clipPath>
</defs>
</svg>
