<svg width="10" height="14" viewBox="0 0 10 14" fill="none" xmlns="http://www.w3.org/2000/svg">
<path d="M9 9.5C9 8.19514 6.57307 3.7659 5.5 1.87129V12.9683C7.46141 12.7194 9 11.046 9 9.5Z" fill="#270147"/>
<path d="M4.99994 1C4.99994 1 1 7.73898 1 9.5C1 11.261 2.80653 13 5 13C5.16919 13 5.33607 12.9891 5.5 12.9683M4.99994 1C4.99994 1 5.19544 1.33356 5.5 1.87129M4.99994 1L5.5 1.87129M5.5 1.87129C6.57307 3.7659 9 8.19514 9 9.5C9 11.046 7.46141 12.7194 5.5 12.9683M5.5 1.87129V12.9683" stroke="#270147" stroke-linecap="round" stroke-linejoin="round"/>
</svg>
